HIERARCHY
ROOT root
{
	OFFSET 0.000000 0.000000 0.000000
	CHANNELS 6 Xposition Yposition Zposition Zrotation Yrotation Xrotation
	JOINT lhip
	{
		OFFSET 0.058581 -0.082280 -0.017664
		CHANNELS 3 Zrotation Yrotation Xrotation
		JOINT lknee
		{
			OFFSET 0.043451 -0.386469 0.008037
			CHANNELS 3 Zrotation Yrotation Xrotation
			JOINT lankle
			{
				OFFSET -0.014790 -0.426874 -0.037428
				CHANNELS 3 Zrotation Yrotation Xrotation
				JOINT ltoe
				{
					OFFSET 0.041054 -0.060286 0.122042
					CHANNELS 3 Zrotation Yrotation Xrotation
					End Site
					{
						OFFSET 0.000000 0.000000 0.000000
					}
				}
			}
		}
	}
	JOINT rhip
	{
		OFFSET -0.060310 -0.090513 -0.013543
		CHANNELS 3 Zrotation Yrotation Xrotation
		JOINT rknee
		{
			OFFSET -0.043257 -0.383688 -0.004843
			CHANNELS 3 Zrotation Yrotation Xrotation
			JOINT rankle
			{
				OFFSET 0.019056 -0.420046 -0.034562
				CHANNELS 3 Zrotation Yrotation Xrotation
				JOINT rtoe
				{
					OFFSET -0.034840 -0.062106 0.130323
					CHANNELS 3 Zrotation Yrotation Xrotation
					End Site
					{
						OFFSET 0.000000 0.000000 0.000000
					}
				}
			}
		}
	}
	JOINT lowerback
	{
		OFFSET 0.004439 0.124404 -0.038385
		CHANNELS 3 Zrotation Yrotation Xrotation
		JOINT upperback
		{
			OFFSET 0.004488 0.137956 0.026820
			CHANNELS 3 Zrotation Yrotation Xrotation
			JOINT chest
			{
				OFFSET -0.002265 0.056032 0.002855
				CHANNELS 3 Zrotation Yrotation Xrotation
				JOINT lowerneck
				{
					OFFSET -0.013390 0.211636 -0.033468
					CHANNELS 3 Zrotation Yrotation Xrotation
					JOINT upperneck
					{
						OFFSET 0.010113 0.088937 0.050410
						CHANNELS 3 Zrotation Yrotation Xrotation
						End Site
						{
							OFFSET 0.000000 0.000000 0.000000
						}
					}
				}
				JOINT lclavicle
				{
					OFFSET 0.071702 0.114000 -0.018898
					CHANNELS 3 Zrotation Yrotation Xrotation
					JOINT lshoulder
					{
						OFFSET 0.122921 0.045205 -0.019046
						CHANNELS 3 Zrotation Yrotation Xrotation
						JOINT lelbow
						{
							OFFSET 0.255332 -0.015649 -0.022946
							CHANNELS 3 Zrotation Yrotation Xrotation
							JOINT lwrist
							{
								OFFSET 0.265709 0.012698 -0.007375
								CHANNELS 3 Zrotation Yrotation Xrotation
								End Site
								{
									OFFSET 0.000000 0.000000 0.000000
								}
							}
						}
					}
				}
				JOINT rclavicle
				{
					OFFSET -0.082954 0.112472 -0.023707
					CHANNELS 3 Zrotation Yrotation Xrotation
					JOINT rshoulder
					{
						OFFSET -0.113228 0.046853 -0.008472
						CHANNELS 3 Zrotation Yrotation Xrotation
						JOINT relbow
						{
							OFFSET -0.260127 -0.014369 -0.031269
							CHANNELS 3 Zrotation Yrotation Xrotation
							JOINT rwrist
							{
								OFFSET -0.269108 0.006794 -0.006027
								CHANNELS 3 Zrotation Yrotation Xrotation
								End Site
								{
									OFFSET 0.000000 0.000000 0.000000
								}
							}
						}
					}
				}
			}
		}
	}
}
MOTION
Frames: 10
Frame Time: 0.033333
0.001766 0.267389 1.017342 -151.003826 1.398551 92.111168 5.523090 -2.904721 -3.364727 -0.068488 -21.688864 -1.195061 -5.818300 4.932063 -4.940309 0.000000 -0.000000 0.000000 -3.539357 -7.016590 -1.457891 1.401017 -1.859230 14.367113 7.175789 -20.110166 -7.766628 0.000000 -0.000000 0.000000 -1.170521 5.907089 -0.842657 0.648256 -2.610990 -13.291871 5.325421 3.638329 -1.886624 -8.001268 -0.235028 -1.182811 10.136578 9.920569 -24.208679 24.351430 -28.691568 -19.423118 -4.018281 -27.486002 -1.408942 -21.268245 -58.530589 12.546428 -0.254039 -32.894578 -57.492000 -36.013788 25.754412 -22.824308 -28.827450 20.591488 -40.660233 -13.652517 34.611597 -20.516590 6.214702 19.989933 -16.798031 
0.001276 0.267286 1.017619 -150.761417 1.207618 91.966176 5.277976 -2.946300 -3.203968 0.018481 -22.158591 -1.338092 -5.688435 4.988978 -4.973828 0.000000 -0.000000 0.000000 -3.705016 -7.060531 -1.465760 1.315309 -1.677876 14.646865 6.868213 -20.459641 -7.664373 0.000000 -0.000000 0.000000 -0.661319 6.310164 -1.058687 0.135815 -2.028406 -12.580244 5.066704 4.201973 -2.046890 -7.810392 -1.084963 -0.461510 10.381732 9.437558 -24.627750 24.098616 -28.163669 -20.136222 -3.708982 -27.440351 -0.722898 -23.415544 -60.414491 14.051712 -0.138262 -32.446599 -57.194354 -36.739898 26.530797 -22.979238 -30.358522 21.739617 -41.573366 -10.277414 28.825453 -18.843971 7.035655 19.917073 -16.414170 
0.000602 0.267387 1.017743 -150.756133 0.973538 91.916315 5.013663 -2.666315 -3.126941 -0.081934 -22.369676 -1.499956 -5.759756 5.268007 -4.775760 0.000000 -0.000000 0.000000 -3.918773 -7.133877 -1.584522 1.274975 -1.578112 14.890800 6.413991 -20.739267 -7.406996 0.000000 -0.000000 0.000000 0.095665 6.727311 -1.310323 -0.424207 -1.411856 -11.551641 4.443373 4.508654 -2.554710 -7.579551 -1.453704 -0.033477 10.386518 9.074839 -24.988910 24.452056 -27.819662 -19.707177 -3.181466 -25.965008 -0.943187 -24.509280 -63.284646 15.149752 -1.069471 -32.572162 -56.674434 -37.671118 27.720931 -23.197172 -32.345813 23.435834 -43.420464 -6.884267 20.917938 -17.193855 8.267075 19.027919 -14.162017 
-0.000069 0.267859 1.018556 -150.863408 0.760878 91.770481 4.793489 -2.401819 -2.765298 -0.028325 -22.518939 -1.901379 -5.676239 5.449628 -4.648960 0.000000 -0.000000 0.000000 -4.055821 -7.108450 -1.363697 1.284813 -1.314236 14.753164 6.216471 -20.902382 -7.230922 0.000000 -0.000000 0.000000 0.873507 7.057442 -1.697951 -0.983108 -0.838635 -11.024955 3.905089 4.912674 -2.555853 -7.145755 -1.501958 1.435485 10.248040 8.689887 -25.818895 25.005104 -26.920356 -20.535514 -3.817799 -25.391518 -0.980541 -27.366690 -64.714811 18.487619 -2.403590 -34.252960 -55.897617 -39.065281 28.641163 -24.536434 -33.928561 27.350102 -46.036137 -4.334581 9.286052 -14.324879 10.575292 18.320163 -10.692683 
-0.000581 0.268395 1.019168 -151.208450 0.496507 91.734548 4.507046 -2.245329 -2.613366 -0.020392 -22.446786 -1.986612 -5.737923 5.646063 -4.583948 0.000000 -0.000000 0.000000 -4.178694 -7.007237 -1.262800 1.061070 -1.056447 14.476585 5.836749 -21.124748 -7.058459 0.000000 -0.000000 0.000000 1.343758 7.503437 -2.523832 -1.603646 -0.251814 -9.861934 3.340338 5.822065 -3.110009 -6.159749 -1.308764 3.208533 10.541620 8.095099 -26.518224 25.563160 -27.113407 -20.444173 -3.404088 -24.414227 -1.414819 -28.826821 -66.432990 20.518540 -4.426078 -36.636598 -55.381329 -40.277821 30.432709 -24.704729 -34.493743 29.539711 -47.977781 -3.615539 -1.608467 -13.559807 13.428882 17.253792 -8.375846 
-0.001061 0.269117 1.020030 -151.845041 0.166165 91.613334 4.143408 -2.189694 -2.270188 0.041560 -21.947821 -2.130583 -5.465985 5.757217 -4.554497 0.000000 -0.000000 0.000000 -4.421336 -6.838124 -0.978032 0.818014 -1.011051 13.976643 5.879703 -20.731837 -7.109514 0.000000 -0.000000 0.000000 1.773302 7.880145 -3.021662 -2.225819 0.446064 -9.116824 2.818396 6.679722 -3.268690 -5.003426 -1.134780 3.907331 11.234702 6.895663 -27.038412 25.825864 -26.149239 -20.621945 -3.189712 -24.160025 -1.345571 -29.573519 -69.133105 21.895451 -6.532769 -37.724454 -53.116920 -40.227994 31.478635 -23.823364 -31.801355 30.286714 -46.368066 -4.161082 -2.064558 -12.329153 16.080306 16.619894 -7.294466 
-0.001247 0.269781 1.020298 -152.660511 -0.091359 91.511469 3.824304 -2.163309 -2.036743 0.100130 -21.294328 -2.074508 -5.123944 5.926370 -4.624529 0.000000 -0.000000 0.000000 -4.544634 -6.658069 -0.604462 0.499527 -1.062964 13.145797 5.700220 -20.176613 -7.083159 0.000000 -0.000000 0.000000 1.938402 8.309798 -3.390614 -2.382280 1.043001 -8.460310 2.491914 6.900764 -3.391321 -4.118326 -0.514810 4.245515 11.627300 5.922372 -27.551231 25.514850 -24.231959 -20.715181 -2.583676 -23.764156 -1.522414 -31.141472 -72.551625 24.247932 -8.904482 -38.647158 -50.414523 -38.730141 31.587926 -23.014103 -29.903856 32.875419 -44.871262 -3.514367 -1.169033 -9.780105 19.013891 16.554179 -6.624787 
-0.000854 0.270175 1.020296 -153.497644 -0.366838 91.491696 3.494230 -2.023193 -1.889210 0.171100 -20.576417 -2.018810 -4.870370 5.956146 -4.695373 0.000000 -0.000000 0.000000 -4.630987 -6.346501 0.008467 0.106497 -1.308784 11.730736 5.470563 -19.663071 -7.204257 0.000000 -0.000000 0.000000 2.053503 8.561376 -3.698090 -2.376909 1.365439 -8.083245 2.588707 6.743452 -3.446819 -3.317598 0.736071 4.870895 11.081930 4.905807 -28.297744 25.054213 -22.021240 -20.811611 -1.920760 -22.585174 -1.758453 -33.836805 -75.906223 27.534248 -11.579064 -40.898006 -47.724691 -38.125188 32.016769 -22.614245 -26.879016 36.452912 -41.316357 -3.898185 -1.474469 -7.255955 20.416570 17.302657 -7.422585 
0.000378 0.270237 1.019594 -154.400219 -0.725357 91.697876 3.214913 -2.061740 -1.977442 0.103836 -19.734987 -2.063042 -4.695109 5.719705 -4.668461 0.000000 -0.000000 0.000000 -4.819921 -6.125863 0.454785 -0.243914 -1.675637 10.113233 5.311864 -18.954271 -7.383945 0.000000 -0.000000 0.000000 1.763512 8.749461 -4.342245 -2.146490 1.571407 -7.229843 2.722411 6.943850 -3.702832 -2.591472 2.418541 5.146425 11.042663 3.389551 -29.024292 25.179796 -20.221629 -20.643194 -0.602111 -21.219320 -2.547977 -33.717712 -78.851861 27.559263 -15.791818 -43.651900 -44.487595 -36.640322 32.861575 -21.658503 -24.293930 38.778206 -39.427015 -4.725789 -0.304017 -6.609264 22.713383 17.652251 -7.872840 
0.002528 0.270221 1.018628 -155.618247 -1.060648 91.904507 2.947482 -2.041729 -1.982308 0.181059 -18.708436 -2.212931 -4.610049 5.667434 -4.605657 0.000000 -0.000000 0.000000 -4.918334 -5.962600 0.988072 -0.698951 -1.823837 8.110780 5.078604 -18.265191 -7.372330 0.000000 -0.000000 0.000000 1.377976 9.013137 -4.692004 -1.930319 1.859422 -6.760011 3.008403 7.285610 -3.541480 -1.817541 4.186202 5.035083 11.004418 1.635195 -29.732502 25.557699 -18.310948 -20.826879 1.170311 -19.890367 -3.494815 -31.319020 -81.210935 24.905131 -19.818571 -46.839786 -41.765457 -35.385581 33.551842 -20.845868 -21.715900 39.774965 -37.916436 -5.296784 2.105747 -6.908289 24.568779 17.765394 -7.900453 
